{"title":"Death.Wish.2018.HDCAM.x264.Clean.Eng.Audio.LLG","magnet":"magnet:?xt=urn:btih:de1df5539bf671b6f4dd717abc9089a97358b845&dn=Death.Wish.2018.HDCAM.x264.Clean.Eng.Audio.LLG&tr=udp%3A%2F%2Ftracker.leechers-paradise.org%3A6969&tr=udp%3A%2F%2Fzer0day.ch%3A1337&tr=udp%3A%2F%2Fopen.demonii.com%3A1337&tr=udp%3A%2F%2Ftracker.coppersurfer.tk%3A6969&tr=udp%3A%2F%2Fexodus.desync.com%3A6969","uploader":"LifeLongg","categoryP":"video","categoryS":"movies","size":"788088761","seeders":"16","leechers":"30","description":"******************************Screenshots:********************\r\n <a href=\"\nhttp://picserver4u.com/m/0951.html\" rel=\"nofollow\" target=\"_NEW\">\nhttp://picserver4u.com/m/0951.html</a>\r\n <a href=\"\nhttp://picserver4u.com/m/0952.html\" rel=\"nofollow\" target=\"_NEW\">\nhttp://picserver4u.com/m/0952.html</a>\r\n <a href=\"\nhttp://picserver4u.com/m/0953.html\" rel=\"nofollow\" target=\"_NEW\">\nhttp://picserver4u.com/m/0953.html</a>\r\n <a href=\"\nhttp://picserver4u.com/m/0954.html\" rel=\"nofollow\" target=\"_NEW\">\nhttp://picserver4u.com/m/0954.html</a>\r\n <a href=\"\nhttp://picserver4u.com/m/0955.html\" rel=\"nofollow\" target=\"_NEW\">\nhttp://picserver4u.com/m/0955.html</a>\r\n <a href=\"\nhttp://picserver4u.com/m/0956.html\" rel=\"nofollow\" target=\"_NEW\">\nhttp://picserver4u.com/m/0956.html</a>\r\n\r\n************************************************************** \r\n\r\nComplete name                            : Death.Wish.2018.HDCAM.x264.Clean.Eng.Audio.LLG\r\nFormat                                   : MPEG-4\r\nFormat profile                           : Base Media\r\nCodec ID                                 : isom (isom/iso2/avc1/mp41)\r\nFile size                                : 739 MiB\r\nDuration                                 : 1 h 39 min\r\nOverall bit rate                         : 1 037 kb/s\r\nWriting application                      : Lavf57.56.101\r\n\r\nVideo\r\nID                                       : 1\r\nFormat                                   : AVC\r\nFormat/Info                              : Advanced Video Codec\r\nFormat profile                           : <a href=\"/cdn-cgi/l/email-protection\" class=\"__cf_email__\" data-cfemail=\"125a7b757a525e21\">[email&#xA0;protected]</a>\r\nFormat settings                          : CABAC / 4 Ref Frames\r\nFormat settings, CABAC                   : Yes\r\nFormat settings, RefFrames               : 4 frames\r\nCodec ID                                 : avc1\r\nCodec ID/Info                            : Advanced Video Coding\r\nDuration                                 : 1 h 39 min\r\nBit rate                                 : 900 kb/s\r\nWidth                                    : 720 pixels\r\nHeight                                   : 304 pixels\r\nDisplay aspect ratio                     : 2.35:1\r\nFrame rate mode                          : Constant\r\nFrame rate                               : 29.970 (29970/1000) FPS\r\nColor space                              : YUV\r\nChroma subsampling                       : 4:2:0\r\nBit depth                                : 8 bits\r\nScan type                                : Progressive\r\nBits/(Pixel*Frame)                       : 0.137\r\nStream size                              : 641 MiB (87%)\r\n\r\nAudio\r\nID                                       : 2\r\nFormat                                   : AAC\r\nFormat/Info                              : Advanced Audio Codec\r\nFormat profile                           : LC\r\nCodec ID                                 : mp4a-40-2\r\nDuration                                 : 1 h 39 min\r\nBit rate mode                            : Constant\r\nBit rate                                 : 128 kb/s\r\nChannel(s)                               : 2 channels\r\nChannel positions                        : Front: L R\r\nSampling rate                            : 48.0 kHz\r\nFrame rate                               : 46.875 FPS (1024 SPF)\r\nCompression mode                         : Lossy\r\nStream size                              : 91.5 MiB (12%)\r\nDefault                                  : Yes\r\nAlternate group                          : 1","last_updated":"2018-03-15T12:18:32.577Z","parsed":{"xt":"urn:btih:de1df5539bf671b6f4dd717abc9089a97358b845","dn":"Death.Wish.2018.HDCAM.x264.Clean.Eng.Audio.LLG","tr":["udp://exodus.desync.com:6969","udp://open.demonii.com:1337","udp://tracker.coppersurfer.tk:6969","udp://tracker.leechers-paradise.org:6969","udp://zer0day.ch:1337"],"infoHash":"de1df5539bf671b6f4dd717abc9089a97358b845","infoHashBuffer":{"type":"Buffer","data":[222,29,245,83,155,246,113,182,244,221,113,122,188,144,137,169,115,88,184,69]},"name":"Death.Wish.2018.HDCAM.x264.Clean.Eng.Audio.LLG","announce":["udp://exodus.desync.com:6969","udp://open.demonii.com:1337","udp://tracker.coppersurfer.tk:6969","udp://tracker.leechers-paradise.org:6969","udp://zer0day.ch:1337"],"urlList":[]}}